<?xml version="1.0" standalone="no"?>
<!DOCTYPE svg PUBLIC "-//W3C//DTD SVG 1.1//EN" "http://www.w3.org/Graphics/SVG/1.1/DTD/svg11.dtd" >
<svg xmlns="http://www.w3.org/2000/svg" xmlns:xlink="http://www.w3.org/1999/xlink" version="1.1">
<metadata>
Created by FontForge 20170910 at Fri Jan 15 13:54:01 2016
 By Jimmy Wärting
Sean Kane 2015
</metadata>
<defs>
<font id="Sk-Modernist-Bold" horiz-adv-x="612" >
  <font-face 
    font-family="Sk-Modernist Bold"
    font-weight="700"
    font-stretch="normal"
    units-per-em="1000"
    panose-1="0 0 8 0 0 0 0 0 0 0"
    ascent="800"
    descent="-200"
    x-height="500"
    cap-height="686"
    bbox="-582 -201 1220 942"
    underline-thickness="50"
    underline-position="-100"
    stemh="100"
    stemv="120"
    unicode-range="U+0020-FB02"
  />
<missing-glyph horiz-adv-x="250" 
 />
    <glyph glyph-name="fi" unicode="fi" horiz-adv-x="538" 
d="M384 500h108v-500h-120v400h-144v-400h-120v400h-80v100h80v55c0 87 59 145 147 145c27 0 55 -6 71 -14v-86h-54c-30 0 -44 -14 -44 -44v-56h156zM372 686h120v-110h-120v110z" />
    <glyph glyph-name="fl" unicode="fl" horiz-adv-x="528" 
d="M108 0v400h-80v100h80v55c0 87 59 145 147 145c27 0 55 -6 71 -14v-86h-54c-30 0 -44 -14 -44 -44v-56h98v-100h-98v-400h-120zM362 0v686h120v-686h-120z" />
    <glyph glyph-name="f_f.liga" unicode="ff" horiz-adv-x="613" 
d="M524 600c-30 0 -44 -14 -44 -44v-56h105v-100h-105v-400h-120v400h-80h-52v-400h-120v400h-80v100h80v55c0 87 59 145 147 145c27 0 55 -6 71 -14v-86h-54c-30 0 -44 -14 -44 -44v-56h98h34v55c0 87 62 145 154 145c21 0 57 -4 71 -14v-86h-61z" />
    <glyph glyph-name="f_f_i.liga" unicode="ffi" horiz-adv-x="790" 
d="M636 500h108v-500h-120v400h-144v-400h-120v400h-80h-52v-400h-120v400h-80v100h80v55c0 87 59 145 147 145c27 0 55 -6 71 -14v-86h-54c-30 0 -44 -14 -44 -44v-56h98h34v55c0 87 59 145 147 145c27 0 55 -6 71 -14v-86h-54c-30 0 -44 -14 -44 -44v-56h156zM624 686h120
v-110h-120v110z" />
    <glyph glyph-name="f_f_j.liga" unicode="ffj" horiz-adv-x="790" 
d="M732 500h12v-500h-12v-40c0 -96 -60 -160 -149 -160c-29 0 -59 6 -76 14v86h61c30 0 44 19 44 60v440h-132v-400h-120v400h-80h-52v-400h-120v400h-80v100h80v55c0 87 59 145 147 145c27 0 55 -6 71 -14v-86h-54c-30 0 -44 -14 -44 -44v-56h98h34v55c0 87 59 145 147 145
c27 0 55 -6 71 -14v-86h-54c-30 0 -44 -14 -44 -44v-56h132h120zM744 686v-110h-120h-12v110h132z" />
    <glyph glyph-name="f_f_l.liga" unicode="ffl" horiz-adv-x="782" 
d="M362 555c0 87 59 145 147 145c27 0 55 -6 71 -14v-86h-54c-30 0 -44 -14 -44 -44v-56h98v-100h-98v-400h-120v400h-80h-54v-400h-120v400h-80v100h80v55c0 87 59 145 147 145c27 0 55 -6 71 -14v-86h-54c-30 0 -44 -14 -44 -44v-56h98h36v55zM616 686h120v-686h-120v686z
" />
    <glyph glyph-name="f_j.liga" unicode="fj" horiz-adv-x="549" 
d="M492 500h11v-540c0 -96 -60 -160 -149 -160c-29 0 -59 6 -76 14v86h61c30 0 44 19 44 60v40h-11v400h-144v-400h-120v400h-80v100h80v55c0 87 59 145 147 145c27 0 55 -6 71 -14v-86h-54c-30 0 -44 -14 -44 -44v-56h144h120zM503 686v-110h-120h-11v110h131z" />
    <glyph glyph-name="f_t.liga" unicode="ft" horiz-adv-x="685" 
d="M570 86h87v-86c-18 -8 -52 -14 -85 -14c-100 0 -166 57 -166 142v272h-178v-400h-120v400h-80v100h80v55c0 87 59 145 147 145c27 0 55 -6 71 -14v-86h-54c-30 0 -44 -14 -44 -44v-56h178v186h120v-186h126v-100h-126v-272c0 -25 18 -42 44 -42z" />
    <glyph glyph-name="r_f.liga" unicode="rf" horiz-adv-x="653" 
d="M564 600c-30 0 -44 -14 -44 -44v-56h105v-100h-105v-400h-120v400h-80h-24c-78 0 -130 -45 -130 -112v-288h-120v500h120v-61c22 37 72 61 123 61h48h63v55c0 87 62 145 154 145c21 0 57 -4 71 -14v-86h-61z" />
    <glyph glyph-name="r_t.liga" unicode="rt" horiz-adv-x="669" 
d="M554 86h87v-86c-18 -8 -52 -14 -85 -14c-100 0 -166 57 -166 142v272h-80h-14c-78 0 -130 -45 -130 -112v-288h-120v500h120v-61c22 37 72 61 123 61h48h53v186h120v-186h126v-100h-126v-272c0 -25 18 -42 44 -42z" />
    <glyph glyph-name="t_f.liga" unicode="tf" horiz-adv-x="659" 
d="M570 600c-30 0 -44 -14 -44 -44v-56h105v-100h-105v-400h-120v400h-178v-272c0 -25 18 -42 44 -42h59v-86c-20 -8 -49 -14 -72 -14c-91 0 -151 52 -151 129v285h-80v100h80v186h120v-186h178v55c0 87 62 145 154 145c21 0 57 -4 71 -14v-86h-61z" />
    <glyph glyph-name="t_t.liga" unicode="tt" horiz-adv-x="685" 
d="M570 86h87v-86c-18 -8 -52 -14 -85 -14c-100 0 -166 57 -166 142v272h-178v-272c0 -25 18 -42 44 -42h59v-86c-20 -8 -49 -14 -72 -14c-91 0 -151 52 -151 129v285h-80v100h80v186h120v-186h178v186h120v-186h126v-100h-126v-272c0 -25 18 -42 44 -42z" />
    <glyph glyph-name=".notdef" horiz-adv-x="250" 
 />
    <glyph glyph-name="A" unicode="A" horiz-adv-x="752" 
d="M587 0l-69 176h-278l-68 -176h-144l283 686h138l281 -686h-143zM287 296h184l-92 236z" />
    <glyph glyph-name="Aacute" unicode="&#xc1;" horiz-adv-x="752" 
d="M536 910l-103 -171h-117l73 171h147zM587 0l-69 176h-278l-68 -176h-144l283 686h138l281 -686h-143zM287 296h184l-92 236z" />
    <glyph glyph-name="Acircumflex" unicode="&#xc2;" horiz-adv-x="752" 
d="M374 786l-36 -47h-133l121 156h96l121 -156h-133zM587 0l-69 176h-278l-68 -176h-144l283 686h138l281 -686h-143zM287 296h184l-92 236z" />
    <glyph glyph-name="Adieresis" unicode="&#xc4;" horiz-adv-x="752" 
d="M334 849v-110h-120v110h120zM534 849v-110h-120v110h120zM587 0l-69 176h-278l-68 -176h-144l283 686h138l281 -686h-143zM287 296h184l-92 236z" />
    <glyph glyph-name="Agrave" unicode="&#xc0;" horiz-adv-x="752" 
d="M432 739h-117l-103 171h147zM587 0l-69 176h-278l-68 -176h-144l283 686h138l281 -686h-143zM287 296h184l-92 236z" />
    <glyph glyph-name="Aring" unicode="&#xc5;" horiz-adv-x="752" 
d="M373 728c-59 0 -107 48 -107 107c0 60 47 107 107 107c61 0 108 -47 108 -107c0 -59 -48 -107 -108 -107zM374 863c-15 0 -28 -13 -28 -27c0 -15 13 -28 28 -28c14 0 27 13 27 28c0 14 -13 27 -27 27zM587 0l-69 176h-278l-68 -176h-144l283 686h138l281 -686h-143z
M287 296h184l-92 236z" />
    <glyph glyph-name="Atilde" unicode="&#xc3;" horiz-adv-x="752" 
d="M279 734h-92c-1 7 -1 13 -1 20c0 73 48 121 124 121c69 0 89 -43 133 -43c17 0 28 16 28 41h90c1 -7 1 -13 1 -20c0 -72 -46 -119 -119 -119c-70 0 -89 43 -133 43c-19 0 -31 -17 -31 -43zM587 0l-69 176h-278l-68 -176h-144l283 686h138l281 -686h-143zM287 296h184
l-92 236z" />
    <glyph glyph-name="AE" unicode="&#xc6;" horiz-adv-x="900" 
d="M22 0l283 686h567v-120h-331v-154h295v-120h-295v-172h331v-120h-465v176h-172l-69 -176h-144zM281 296h126v270h-20z" />
    <glyph glyph-name="B" unicode="B" horiz-adv-x="682" 
d="M58 0v686h319c135 0 225 -74 225 -185c0 -47 -26 -100 -66 -134c72 -31 120 -101 120 -174c0 -116 -94 -193 -234 -193h-364zM192 412h185c55 0 91 31 91 77s-36 77 -91 77h-185v-154zM192 120h230c60 0 100 34 100 85c0 52 -40 87 -99 87h-231v-172z" />
    <glyph glyph-name="C" unicode="C" horiz-adv-x="739" 
d="M383 -14c-214 0 -357 143 -357 357s143 357 357 357c156 0 287 -107 327 -267h-132c-33 88 -111 147 -195 147c-134 0 -223 -95 -223 -237s89 -237 223 -237c94 0 174 65 201 163h129c-33 -170 -165 -283 -330 -283z" />
    <glyph glyph-name="Ccedilla" unicode="&#xc7;" horiz-adv-x="739" 
d="M713 269c-33 -169 -164 -282 -328 -283c-21 -21 -33 -41 -33 -56c0 -14 12 -24 30 -24h57v-83c-28 -14 -64 -23 -92 -23c-70 0 -116 42 -116 105c0 29 21 62 57 91c-160 36 -262 166 -262 347c0 214 143 357 357 357c156 0 287 -107 327 -267h-132
c-33 88 -111 147 -195 147c-134 0 -223 -95 -223 -237s89 -237 223 -237c94 0 174 65 201 163h129z" />
    <glyph glyph-name="D" unicode="D" horiz-adv-x="700" 
d="M58 0v686h267c209 0 349 -137 349 -343s-140 -343 -349 -343h-267zM192 120h133c129 0 215 89 215 223s-86 223 -215 223h-133v-446z" />
    <glyph glyph-name="Eth" unicode="&#xd0;" horiz-adv-x="700" 
d="M325 686c209 0 349 -137 349 -343s-140 -343 -349 -343h-267v290h-97v108h97v288h267zM325 120c129 0 215 89 215 223s-86 223 -215 223h-133v-168h153v-108h-153v-170h133z" />
    <glyph glyph-name="E" unicode="E" horiz-adv-x="551" 
d="M58 0v686h465v-120h-331v-154h295v-120h-295v-172h331v-120h-465z" />
    <glyph glyph-name="Eacute" unicode="&#xc9;" horiz-adv-x="551" 
d="M350 739h-117l73 171h147zM58 0v686h465v-120h-331v-154h295v-120h-295v-172h331v-120h-465z" />
    <glyph glyph-name="Ecircumflex" unicode="&#xca;" horiz-adv-x="551" 
d="M291 786l-36 -47h-133l121 156h96l121 -156h-133zM523 566h-331v-154h295v-120h-295v-172h331v-120h-465v686h465v-120z" />
    <glyph glyph-name="Edieresis" unicode="&#xcb;" horiz-adv-x="551" 
d="M131 739v110h120v-110h-120zM331 739v110h120v-110h-120zM58 0v686h465v-120h-331v-154h295v-120h-295v-172h331v-120h-465z" />
    <glyph glyph-name="Egrave" unicode="&#xc8;" horiz-adv-x="551" 
d="M232 739l-103 171h147l73 -171h-117zM58 0v686h465v-120h-331v-154h295v-120h-295v-172h331v-120h-465z" />
    <glyph glyph-name="F" unicode="F" horiz-adv-x="551" 
d="M58 0v686h465v-120h-331v-154h295v-120h-295v-292h-134z" />
    <glyph glyph-name="G" unicode="G" horiz-adv-x="744" 
d="M383 -14c-214 0 -357 143 -357 358c0 214 143 356 357 356c117 0 235 -78 295 -194l-125 -31c-36 63 -104 105 -170 105c-134 0 -223 -94 -223 -236c0 -143 89 -238 223 -238c92 0 171 65 196 163h-226v120h365v-45c0 -215 -134 -358 -335 -358z" />
    <glyph glyph-name="H" unicode="H" horiz-adv-x="692" 
d="M58 0v686h134v-274h316v274h134v-686h-134v292h-316v-292h-134z" />
    <glyph glyph-name="I" unicode="I" horiz-adv-x="242" 
d="M58 0v686h134v-686h-134z" />
    <glyph glyph-name="Iacute" unicode="&#xcd;" horiz-adv-x="242" 
d="M184 739h-117l73 171h147zM58 0v686h134v-686h-134z" />
    <glyph glyph-name="Icircumflex" unicode="&#xce;" horiz-adv-x="242" 
d="M125 786l-36 -47h-133l121 156h96l121 -156h-133zM58 0v686h134v-686h-134z" />
    <glyph glyph-name="Idieresis" unicode="&#xcf;" horiz-adv-x="242" 
d="M-35 739v110h120v-110h-120zM165 739v110h120v-110h-120zM58 0v686h134v-686h-134z" />
    <glyph glyph-name="Igrave" unicode="&#xcc;" horiz-adv-x="242" 
d="M66 739l-103 171h147l73 -171h-117zM58 0v686h134v-686h-134z" />
    <glyph glyph-name="J" unicode="J" horiz-adv-x="572" 
d="M275 -14c-134 0 -235 87 -253 217h127c13 -58 63 -97 126 -97c70 0 117 62 117 156v424h134v-424c0 -166 -100 -276 -251 -276z" />
    <glyph glyph-name="K" unicode="K" horiz-adv-x="680" 
d="M58 0v686h134v-311l284 311h181l-277 -298l278 -388h-156l-210 293l-100 -107v-186h-134z" />
    <glyph glyph-name="L" unicode="L" horiz-adv-x="551" 
d="M58 0v686h134v-566h331v-120h-465z" />
    <glyph glyph-name="Lslash" unicode="&#x141;" horiz-adv-x="588" 
d="M229 120h331v-120h-465v127l-67 -47v145l67 47v414h134v-319l245 174v-145l-245 -174v-102z" />
    <glyph glyph-name="M" unicode="M" horiz-adv-x="882" 
d="M58 0v686h166l221 -517l221 517h166v-686h-134v487l-196 -487h-114l-196 487v-487h-134z" />
    <glyph glyph-name="N" unicode="N" horiz-adv-x="726" 
d="M58 0v686h147l337 -499v499h134v-686h-147l-337 500v-500h-134z" />
    <glyph glyph-name="Nacute" unicode="&#x143;" horiz-adv-x="726" 
d="M422 739h-117l73 171h147zM58 0v686h147l337 -499v499h134v-686h-147l-337 500v-500h-134z" />
    <glyph glyph-name="Ncaron" unicode="&#x147;" horiz-adv-x="726" 
d="M411 733h-96l-121 156h133l36 -47l36 47h133zM542 686h134v-686h-147l-337 500v-500h-134v686h147l337 -499v499z" />
    <glyph glyph-name="Ntilde" unicode="&#xd1;" horiz-adv-x="726" 
d="M176 734c-1 7 -1 13 -1 20c0 73 48 121 124 121c69 0 89 -43 133 -43c17 0 28 16 28 41h90c1 -7 1 -13 1 -20c0 -72 -46 -119 -119 -119c-70 0 -89 43 -133 43c-19 0 -31 -17 -31 -43h-92zM58 0v686h147l337 -499v499h134v-686h-147l-337 500v-500h-134z" />
    <glyph glyph-name="O" unicode="O" horiz-adv-x="766" 
d="M383 -14c-214 0 -357 143 -357 357s143 357 357 357s357 -143 357 -357s-143 -357 -357 -357zM383 106c134 0 223 95 223 237s-89 237 -223 237s-223 -95 -223 -237s89 -237 223 -237z" />
    <glyph glyph-name="Oacute" unicode="&#xd3;" horiz-adv-x="766" 
d="M442 739h-117l73 171h147zM383 -14c-214 0 -357 143 -357 357s143 357 357 357s357 -143 357 -357s-143 -357 -357 -357zM383 106c134 0 223 95 223 237s-89 237 -223 237s-223 -95 -223 -237s89 -237 223 -237z" />
    <glyph glyph-name="Ocircumflex" unicode="&#xd4;" horiz-adv-x="766" 
d="M383 786l-36 -47h-133l121 156h96l121 -156h-133zM383 700c214 0 357 -143 357 -357s-143 -357 -357 -357s-357 143 -357 357s143 357 357 357zM383 106c134 0 223 95 223 237s-89 237 -223 237s-223 -95 -223 -237s89 -237 223 -237z" />
    <glyph glyph-name="Odieresis" unicode="&#xd6;" horiz-adv-x="766" 
d="M223 739v110h120v-110h-120zM423 739v110h120v-110h-120zM383 -14c-214 0 -357 143 -357 357s143 357 357 357s357 -143 357 -357s-143 -357 -357 -357zM383 106c134 0 223 95 223 237s-89 237 -223 237s-223 -95 -223 -237s89 -237 223 -237z" />
    <glyph glyph-name="Ograve" unicode="&#xd2;" horiz-adv-x="766" 
d="M324 739l-103 171h147l73 -171h-117zM383 -14c-214 0 -357 143 -357 357s143 357 357 357s357 -143 357 -357s-143 -357 -357 -357zM383 106c134 0 223 95 223 237s-89 237 -223 237s-223 -95 -223 -237s89 -237 223 -237z" />
    <glyph glyph-name="Oslash" unicode="&#xd8;" horiz-adv-x="766" 
d="M613 628c80 -63 127 -162 127 -285c0 -214 -143 -357 -357 -357c-51 0 -99 8 -141 24l-17 -29h-118l46 77c-80 63 -127 162 -127 285c0 214 143 357 357 357c51 0 99 -8 141 -24l17 29h118zM160 343c0 -71 22 -130 61 -172l238 397c-23 8 -49 12 -76 12
c-134 0 -223 -95 -223 -237zM383 106c134 0 223 95 223 237c0 71 -22 130 -61 172l-238 -397c23 -8 49 -12 76 -12z" />
    <glyph glyph-name="Otilde" unicode="&#xd5;" horiz-adv-x="766" 
d="M196 734c-1 7 -1 13 -1 20c0 73 48 121 124 121c69 0 89 -43 133 -43c17 0 28 16 28 41h90c1 -7 1 -13 1 -20c0 -72 -46 -119 -119 -119c-70 0 -89 43 -133 43c-19 0 -31 -17 -31 -43h-92zM383 -14c-214 0 -357 143 -357 357s143 357 357 357s357 -143 357 -357
s-143 -357 -357 -357zM383 106c134 0 223 95 223 237s-89 237 -223 237s-223 -95 -223 -237s89 -237 223 -237z" />
    <glyph glyph-name="OE" unicode="&#x152;" horiz-adv-x="1099" 
d="M370 -14c-206 0 -344 143 -344 357s138 357 344 357c88 0 182 -46 236 -114v100h465v-120h-331v-154h295v-120h-295v-172h331v-120h-465v101c-55 -69 -150 -115 -236 -115zM383 106c134 0 223 95 223 237s-89 237 -223 237s-223 -95 -223 -237s89 -237 223 -237z" />
    <glyph glyph-name="P" unicode="P" horiz-adv-x="626" 
d="M58 0v686h305c142 0 237 -85 237 -212c0 -129 -95 -215 -237 -215h-171v-259h-134zM192 379h171c62 0 103 38 103 95c0 55 -41 92 -103 92h-171v-187z" />
    <glyph glyph-name="Hello Porton" unicode="&#xde;" horiz-adv-x="614" 
d="M351 556c142 0 237 -85 237 -212c0 -129 -95 -215 -237 -215h-171v-129h-134v556v130h134v-130h171zM351 249c62 0 103 38 103 95c0 55 -41 92 -103 92h-171v-187h171z" />
    <glyph glyph-name="Q" unicode="Q" horiz-adv-x="773" 
d="M383 -14c-214 0 -357 143 -357 358c0 214 143 356 357 356s357 -142 357 -356c0 -78 -32 -170 -81 -231c6 -7 41 -11 88 -11v-102c-27 -8 -56 -14 -72 -14c-36 0 -83 17 -118 42c-47 -25 -116 -42 -174 -42zM383 106c134 0 223 95 223 238c0 142 -89 236 -223 236
s-223 -94 -223 -236c0 -143 89 -238 223 -238z" />
    <glyph glyph-name="R" unicode="R" horiz-adv-x="674" 
d="M58 0v686h319c134 0 223 -79 223 -197c0 -91 -56 -166 -139 -187l187 -302h-148l-181 292h-127v-292h-134zM192 412h185c61 0 92 39 92 77c0 39 -31 77 -92 77h-185v-154z" />
    <glyph glyph-name="S" unicode="S" horiz-adv-x="670" 
d="M339 -14c-185 0 -310 100 -313 250h127c3 -78 77 -130 186 -130c103 0 172 38 172 94c0 140 -447 55 -447 298c0 121 110 202 275 202c138 0 251 -79 283 -197l-123 -31c-16 65 -80 108 -160 108c-85 0 -142 -33 -142 -82c0 -106 447 -47 447 -298
c0 -128 -122 -214 -305 -214z" />
    <glyph glyph-name="Scaron" unicode="&#x160;" horiz-adv-x="670" 
d="M384 733h-96l-121 156h133l36 -47l36 47h133zM197 498c0 -106 447 -47 447 -298c0 -128 -122 -214 -305 -214c-185 0 -310 100 -313 250h127c3 -78 77 -130 186 -130c103 0 172 38 172 94c0 140 -447 55 -447 298c0 121 110 202 275 202c138 0 251 -79 283 -197l-123 -31
c-16 65 -80 108 -160 108c-85 0 -142 -33 -142 -82z" />
    <glyph glyph-name="T" unicode="T" horiz-adv-x="586" 
d="M226 0v566h-198v120h530v-120h-198v-566h-134z" />
    <glyph glyph-name="U" unicode="U" horiz-adv-x="694" 
d="M352 -12c-176 0 -294 108 -294 270v428h134v-428c0 -90 64 -150 160 -150c95 0 158 60 158 150v428h134v-428c0 -162 -117 -270 -292 -270z" />
    <glyph glyph-name="Uacute" unicode="&#xda;" horiz-adv-x="694" 
d="M406 739h-117l73 171h147zM352 -12c-176 0 -294 108 -294 270v428h134v-428c0 -90 64 -150 160 -150c95 0 158 60 158 150v428h134v-428c0 -162 -117 -270 -292 -270z" />
    <glyph glyph-name="Ucircumflex" unicode="&#xdb;" horiz-adv-x="694" 
d="M347 786l-36 -47h-133l121 156h96l121 -156h-133zM510 686h134v-428c0 -162 -117 -270 -292 -270c-176 0 -294 108 -294 270v428h134v-428c0 -90 64 -150 160 -150c95 0 158 60 158 150v428z" />
    <glyph glyph-name="Udieresis" unicode="&#xdc;" horiz-adv-x="694" 
d="M187 739v110h120v-110h-120zM387 739v110h120v-110h-120zM352 -12c-176 0 -294 108 -294 270v428h134v-428c0 -90 64 -150 160 -150c95 0 158 60 158 150v428h134v-428c0 -162 -117 -270 -292 -270z" />
    <glyph glyph-name="Ugrave" unicode="&#xd9;" horiz-adv-x="694" 
d="M288 739l-103 171h147l73 -171h-117zM352 -12c-176 0 -294 108 -294 270v428h134v-428c0 -90 64 -150 160 -150c95 0 158 60 158 150v428h134v-428c0 -162 -117 -270 -292 -270z" />
    <glyph glyph-name="V" unicode="V" horiz-adv-x="746" 
d="M305 0l-283 686h144l207 -532l208 532h143l-281 -686h-138z" />
    <glyph glyph-name="W" unicode="W" horiz-adv-x="923" 
d="M216 0l-194 686h139l126 -512l109 512h131l109 -512l127 512h138l-193 -686h-150l-96 441l-97 -441h-149z" />
    <glyph glyph-name="X" unicode="X" horiz-adv-x="747" 
d="M22 0l272 359l-249 327h166l163 -221l162 221h166l-249 -327l272 -359h-166l-185 253l-186 -253h-166z" />
    <glyph glyph-name="Y" unicode="Y" horiz-adv-x="628" 
d="M247 0v232l-225 454h148l144 -300l144 300h148l-225 -454v-232h-134z" />
    <glyph glyph-name="Yacute" unicode="&#xdd;" horiz-adv-x="628" 
d="M373 739h-117l73 171h147zM247 0v232l-225 454h148l144 -300l144 300h148l-225 -454v-232h-134z" />
    <glyph glyph-name="Ydieresis" unicode="&#x178;" horiz-adv-x="628" 
d="M154 739v110h120v-110h-120zM354 739v110h120v-110h-120zM247 0v232l-225 454h148l144 -300l144 300h148l-225 -454v-232h-134z" />
    <glyph glyph-name="Z" unicode="Z" horiz-adv-x="586" 
d="M28 0v107l354 459h-354v120h530v-108l-354 -458h354v-120h-530z" />
    <glyph glyph-name="Zcaron" unicode="&#x17d;" horiz-adv-x="586" 
d="M341 733h-96l-121 156h133l36 -47l36 47h133zM558 686v-108l-354 -458h354v-120h-530v107l354 459h-354v120h530z" />
    <glyph glyph-name="a" unicode="a" horiz-adv-x="614" 
d="M286 -14c-156 0 -260 106 -260 264s104 264 260 264c59 0 124 -27 162 -68v54h120v-500h-120v54c-38 -41 -103 -68 -162 -68zM298 92c90 0 150 63 150 158s-60 158 -150 158c-91 0 -152 -63 -152 -158s61 -158 152 -158z" />
    <glyph glyph-name="aacute" unicode="&#xe1;" horiz-adv-x="614" 
d="M378 553h-117l73 171h147zM286 -14c-156 0 -260 106 -260 264s104 264 260 264c59 0 124 -27 162 -68v54h120v-500h-120v54c-38 -41 -103 -68 -162 -68zM298 92c90 0 150 63 150 158s-60 158 -150 158c-91 0 -152 -63 -152 -158s61 -158 152 -158z" />
    <glyph glyph-name="acircumflex" unicode="&#xe2;" horiz-adv-x="614" 
d="M319 600l-36 -47h-133l121 156h96l121 -156h-133zM448 500h120v-500h-120v54c-38 -41 -103 -68 -162 -68c-156 0 -260 106 -260 264s104 264 260 264c59 0 124 -27 162 -68v54zM298 92c90 0 150 63 150 158s-60 158 -150 158c-91 0 -152 -63 -152 -158s61 -158 152 -158z
" />
    <glyph glyph-name="adieresis" unicode="&#xe4;" horiz-adv-x="614" 
d="M159 553v110h120v-110h-120zM359 553v110h120v-110h-120zM286 -14c-156 0 -260 106 -260 264s104 264 260 264c59 0 124 -27 162 -68v54h120v-500h-120v54c-38 -41 -103 -68 -162 -68zM298 92c90 0 150 63 150 158s-60 158 -150 158c-91 0 -152 -63 -152 -158
s61 -158 152 -158z" />
    <glyph glyph-name="agrave" unicode="&#xe0;" horiz-adv-x="614" 
d="M260 553l-103 171h147l73 -171h-117zM286 -14c-156 0 -260 106 -260 264s104 264 260 264c59 0 124 -27 162 -68v54h120v-500h-120v54c-38 -41 -103 -68 -162 -68zM298 92c90 0 150 63 150 158s-60 158 -150 158c-91 0 -152 -63 -152 -158s61 -158 152 -158z" />
    <glyph glyph-name="aring" unicode="&#xe5;" horiz-adv-x="614" 
d="M318 542c-59 0 -107 48 -107 107c0 60 47 107 107 107c61 0 108 -47 108 -107c0 -59 -48 -107 -108 -107zM319 622c14 0 27 13 27 28c0 14 -13 27 -27 27c-15 0 -28 -13 -28 -27c0 -15 13 -28 28 -28zM286 -14c-156 0 -260 106 -260 264s104 264 260 264
c59 0 124 -27 162 -68v54h120v-500h-120v54c-38 -41 -103 -68 -162 -68zM298 92c90 0 150 63 150 158s-60 158 -150 158c-91 0 -152 -63 -152 -158s61 -158 152 -158z" />
    <glyph glyph-name="atilde" unicode="&#xe3;" horiz-adv-x="614" 
d="M132 548c-1 7 -1 13 -1 20c0 73 48 121 124 121c69 0 89 -43 133 -43c17 0 28 16 28 41h90c1 -7 1 -13 1 -20c0 -72 -46 -119 -119 -119c-70 0 -89 43 -133 43c-19 0 -31 -17 -31 -43h-92zM286 -14c-156 0 -260 106 -260 264s104 264 260 264c59 0 124 -27 162 -68v54
h120v-500h-120v54c-38 -41 -103 -68 -162 -68zM298 92c90 0 150 63 150 158s-60 158 -150 158c-91 0 -152 -63 -152 -158s61 -158 152 -158z" />
    <glyph glyph-name="ae" unicode="&#xe6;" horiz-adv-x="1030" 
d="M291 -14c-159 0 -265 106 -265 264s106 264 265 264c54 0 117 -25 157 -62v48h134v-48c39 37 102 62 158 62c158 0 264 -106 264 -264c0 -13 0 -26 -1 -33h-417c16 -67 72 -111 140 -111c46 0 94 26 120 64h148c-33 -110 -134 -184 -254 -184c-56 0 -119 24 -158 61v-47
h-134v48c-40 -37 -103 -62 -157 -62zM304 106c86 0 144 58 144 144s-58 144 -144 144s-144 -58 -144 -144s58 -144 144 -144zM599 317h255c-27 52 -68 77 -128 77c-59 0 -100 -25 -127 -77z" />
    <glyph glyph-name="b" unicode="b" horiz-adv-x="622" 
d="M332 -14c-61 0 -128 28 -166 69v-55h-120v686h120v-241c38 41 105 69 166 69c158 0 264 -106 264 -264s-106 -264 -264 -264zM320 92c94 0 156 63 156 158s-62 158 -156 158c-92 0 -154 -63 -154 -158s62 -158 154 -158z" />
    <glyph glyph-name="c" unicode="c" horiz-adv-x="585" 
d="M297 -14c-163 0 -271 106 -271 264s108 264 271 264c135 0 239 -85 261 -212h-115c-16 64 -74 106 -146 106c-91 0 -151 -63 -151 -158s60 -158 151 -158c73 0 132 44 147 111h115c-21 -130 -126 -217 -262 -217z" />
    <glyph glyph-name="ccedilla" unicode="&#xe7;" horiz-adv-x="585" 
d="M559 203c-20 -124 -116 -209 -243 -216c-22 -22 -34 -42 -34 -57c0 -14 12 -24 30 -24h57v-83c-28 -14 -64 -23 -92 -23c-70 0 -116 42 -116 105c0 29 21 61 56 90c-117 29 -191 124 -191 255c0 158 108 264 271 264c135 0 239 -85 261 -212h-115
c-16 64 -74 106 -146 106c-91 0 -151 -63 -151 -158s60 -158 151 -158c73 0 132 44 147 111h115z" />
    <glyph glyph-name="d" unicode="d" horiz-adv-x="622" 
d="M290 -14c-158 0 -264 106 -264 264s106 264 264 264c61 0 128 -28 166 -69v241h120v-686h-120v55c-38 -41 -105 -69 -166 -69zM302 92c92 0 154 63 154 158s-62 158 -154 158c-94 0 -156 -63 -156 -158s62 -158 156 -158z" />
    <glyph glyph-name="eth" unicode="&#xf0;" horiz-adv-x="566" 
d="M283 -14c-154 0 -257 106 -257 266s100 266 249 266c34 0 75 -11 104 -28c0 0 -36 45 -80 73l-49 -34l-59 51l51 35l-60 50l62 45l64 -49l51 36l57 -53l-52 -36c120 -116 176 -230 176 -356c0 -160 -103 -266 -257 -266zM283 89c87 0 145 65 145 163s-58 163 -145 163
s-145 -65 -145 -163s58 -163 145 -163z" />
    <glyph glyph-name="e" unicode="e" horiz-adv-x="594" 
d="M297 -14c-163 0 -271 106 -271 264s108 264 271 264s271 -106 271 -264v-23l-10 -10h-410c11 -79 71 -131 149 -131c59 0 114 34 137 84h122c-33 -110 -137 -184 -259 -184zM156 317h282c-23 62 -74 97 -141 97s-118 -35 -141 -97z" />
    <glyph glyph-name="eacute" unicode="&#xe9;" horiz-adv-x="594" 
d="M353 576h-117l73 171h147zM297 -14c-163 0 -271 106 -271 264s108 264 271 264s271 -106 271 -264v-23l-10 -10h-410c11 -79 71 -131 149 -131c59 0 114 34 137 84h122c-33 -110 -137 -184 -259 -184zM156 317h282c-23 62 -74 97 -141 97s-118 -35 -141 -97z" />
    <glyph glyph-name="ecircumflex" unicode="&#xea;" horiz-adv-x="594" 
d="M294 623l-36 -47h-133l121 156h96l121 -156h-133zM297 514c163 0 271 -106 271 -264v-23l-10 -10h-410c11 -79 71 -131 149 -131c59 0 114 34 137 84h122c-33 -110 -137 -184 -259 -184c-163 0 -271 106 -271 264s108 264 271 264zM156 317h282c-23 62 -74 97 -141 97
s-118 -35 -141 -97z" />
    <glyph glyph-name="edieresis" unicode="&#xeb;" horiz-adv-x="594" 
d="M134 576v110h120v-110h-120zM334 576v110h120v-110h-120zM297 -14c-163 0 -271 106 -271 264s108 264 271 264s271 -106 271 -264v-23l-10 -10h-410c11 -79 71 -131 149 -131c59 0 114 34 137 84h122c-33 -110 -137 -184 -259 -184zM156 317h282c-23 62 -74 97 -141 97
s-118 -35 -141 -97z" />
    <glyph glyph-name="egrave" unicode="&#xe8;" horiz-adv-x="594" 
d="M235 576l-103 171h147l73 -171h-117zM297 -14c-163 0 -271 106 -271 264s108 264 271 264s271 -106 271 -264v-23l-10 -10h-410c11 -79 71 -131 149 -131c59 0 114 34 137 84h122c-33 -110 -137 -184 -259 -184zM156 317h282c-23 62 -74 97 -141 97s-118 -35 -141 -97z
" />
    <glyph glyph-name="f" unicode="f" horiz-adv-x="361" 
d="M108 0v400h-80v100h80v55c0 87 62 145 154 145c21 0 57 -4 71 -14v-86h-61c-30 0 -44 -14 -44 -44v-56h105v-100h-105v-400h-120z" />
    <glyph glyph-name="g" unicode="g" horiz-adv-x="596" 
d="M288 -200c-137 0 -239 80 -256 200h120c15 -56 69 -94 136 -94c91 0 142 54 142 149v8c-37 -38 -98 -63 -153 -63c-151 0 -251 103 -251 257s100 257 251 257c55 0 116 -25 153 -63v49h120v-445c0 -163 -94 -255 -262 -255zM289 106c85 0 141 60 141 151
s-56 151 -141 151c-86 0 -143 -60 -143 -151s57 -151 143 -151z" />
    <glyph glyph-name="h" unicode="h" horiz-adv-x="576" 
d="M46 0v686h120v-223c33 31 87 51 136 51c137 0 228 -81 228 -203v-311h-120v297c0 67 -49 111 -122 111s-122 -44 -122 -111v-297h-120z" />
    <glyph glyph-name="i" unicode="i" horiz-adv-x="212" 
d="M46 576v110h120v-110h-120zM46 0v500h120v-500h-120z" />
    <glyph glyph-name="dotlessi" unicode="&#x131;" horiz-adv-x="212" 
d="M46 0v500h120v-500h-120z" />
    <glyph glyph-name="iacute" unicode="&#xed;" horiz-adv-x="212" 
d="M165 553h-117l73 171h147zM46 0v500h120v-500h-120z" />
    <glyph glyph-name="icircumflex" unicode="&#xee;" horiz-adv-x="212" 
d="M106 600l-36 -47h-133l121 156h96l121 -156h-133zM46 0v500h120v-500h-120z" />
    <glyph glyph-name="idieresis" unicode="&#xef;" horiz-adv-x="212" 
d="M-54 553v110h120v-110h-120zM146 553v110h120v-110h-120zM46 0v500h120v-500h-120z" />
    <glyph glyph-name="igrave" unicode="&#xec;" horiz-adv-x="212" 
d="M47 553l-103 171h147l73 -171h-117zM46 0v500h120v-500h-120z" />
    <glyph glyph-name="j" unicode="j" horiz-adv-x="228" 
d="M62 576v110h120v-110h-120zM33 -200c-29 0 -59 6 -76 14v86h61c30 0 44 19 44 60v540h120v-540c0 -96 -60 -160 -149 -160z" />
    <glyph glyph-name="uni0237" unicode="&#x237;" horiz-adv-x="227" 
d="M33 -200c-29 0 -59 6 -76 14v86h61c30 0 44 19 44 60v540h120v-540c0 -96 -60 -160 -149 -160z" />
    <glyph glyph-name="k" unicode="k" horiz-adv-x="549" 
d="M46 0v686h120v-356l169 170h168l-212 -208l236 -292h-154l-168 208l-39 -39v-169h-120z" />
    <glyph glyph-name="l" unicode="l" horiz-adv-x="212" 
d="M46 0v686h120v-686h-120z" />
    <glyph glyph-name="lslash" unicode="&#x142;" horiz-adv-x="284" 
d="M256 500v-98l-74 -52v-349h-120v264l-34 -24v98l34 24v324h120v-239z" />
    <glyph glyph-name="m" unicode="m" horiz-adv-x="816" 
d="M46 0v500h120v-45c30 38 74 59 122 59c46 0 99 -24 133 -60c35 36 95 60 150 60c119 0 199 -66 199 -165v-349h-120v337c0 43 -36 71 -91 71s-91 -28 -91 -71v-337h-120v337c0 43 -36 71 -91 71s-91 -28 -91 -71v-337h-120z" />
    <glyph glyph-name="n" unicode="n" horiz-adv-x="576" 
d="M46 0v500h120v-37c33 31 87 51 136 51c137 0 228 -81 228 -203v-311h-120v297c0 67 -49 111 -122 111s-122 -44 -122 -111v-297h-120z" />
    <glyph glyph-name="nacute" unicode="&#x144;" horiz-adv-x="576" 
d="M351 553h-117l73 171h147zM46 0v500h120v-37c33 31 87 51 136 51c137 0 228 -81 228 -203v-311h-120v297c0 67 -49 111 -122 111s-122 -44 -122 -111v-297h-120z" />
    <glyph glyph-name="ncaron" unicode="&#x148;" horiz-adv-x="576" 
d="M340 547h-96l-121 156h133l36 -47l36 47h133zM302 514c137 0 228 -81 228 -203v-311h-120v297c0 67 -49 111 -122 111s-122 -44 -122 -111v-297h-120v500h120v-37c33 31 87 51 136 51z" />
    <glyph glyph-name="ntilde" unicode="&#xf1;" horiz-adv-x="576" 
d="M105 548c-1 7 -1 13 -1 20c0 73 48 121 124 121c69 0 89 -43 133 -43c17 0 28 16 28 41h90c1 -7 1 -13 1 -20c0 -72 -46 -119 -119 -119c-70 0 -89 43 -133 43c-19 0 -31 -17 -31 -43h-92zM46 0v500h120v-37c33 31 87 51 136 51c137 0 228 -81 228 -203v-311h-120v297
c0 67 -49 111 -122 111s-122 -44 -122 -111v-297h-120z" />
    <glyph glyph-name="o" unicode="o" horiz-adv-x="594" 
d="M297 -14c-163 0 -271 106 -271 264s108 264 271 264s271 -106 271 -264s-108 -264 -271 -264zM297 92c91 0 151 63 151 158s-60 158 -151 158s-151 -63 -151 -158s60 -158 151 -158z" />
    <glyph glyph-name="oacute" unicode="&#xf3;" horiz-adv-x="594" 
d="M356 553h-117l73 171h147zM297 -14c-163 0 -271 106 -271 264s108 264 271 264s271 -106 271 -264s-108 -264 -271 -264zM297 92c91 0 151 63 151 158s-60 158 -151 158s-151 -63 -151 -158s60 -158 151 -158z" />
    <glyph glyph-name="ocircumflex" unicode="&#xf4;" horiz-adv-x="594" 
d="M297 600l-36 -47h-133l121 156h96l121 -156h-133zM297 514c163 0 271 -106 271 -264s-108 -264 -271 -264s-271 106 -271 264s108 264 271 264zM297 92c91 0 151 63 151 158s-60 158 -151 158s-151 -63 -151 -158s60 -158 151 -158z" />
    <glyph glyph-name="odieresis" unicode="&#xf6;" horiz-adv-x="594" 
d="M137 553v110h120v-110h-120zM337 553v110h120v-110h-120zM297 -14c-163 0 -271 106 -271 264s108 264 271 264s271 -106 271 -264s-108 -264 -271 -264zM297 92c91 0 151 63 151 158s-60 158 -151 158s-151 -63 -151 -158s60 -158 151 -158z" />
    <glyph glyph-name="ograve" unicode="&#xf2;" horiz-adv-x="594" 
d="M238 553l-103 171h147l73 -171h-117zM297 -14c-163 0 -271 106 -271 264s108 264 271 264s271 -106 271 -264s-108 -264 -271 -264zM297 92c91 0 151 63 151 158s-60 158 -151 158s-151 -63 -151 -158s60 -158 151 -158z" />
    <glyph glyph-name="oslash" unicode="&#xf8;" horiz-adv-x="596" 
d="M574 514l-71 -83c41 -46 64 -108 64 -181c0 -158 -108 -264 -271 -264c-56 0 -105 12 -146 35l-30 -35h-98l69 81c-42 46 -66 108 -66 183c0 158 108 264 271 264c57 0 107 -13 149 -37l31 37h98zM145 250c0 -36 9 -68 24 -93l201 234c-21 11 -46 17 -74 17
c-91 0 -151 -63 -151 -158zM447 250c0 35 -8 65 -23 90l-199 -232c20 -11 44 -16 71 -16c91 0 151 63 151 158z" />
    <glyph glyph-name="otilde" unicode="&#xf5;" horiz-adv-x="594" 
d="M110 548c-1 7 -1 13 -1 20c0 73 48 121 124 121c69 0 89 -43 133 -43c17 0 28 16 28 41h90c1 -7 1 -13 1 -20c0 -72 -46 -119 -119 -119c-70 0 -89 43 -133 43c-19 0 -31 -17 -31 -43h-92zM297 -14c-163 0 -271 106 -271 264s108 264 271 264s271 -106 271 -264
s-108 -264 -271 -264zM297 92c91 0 151 63 151 158s-60 158 -151 158s-151 -63 -151 -158s60 -158 151 -158z" />
    <glyph glyph-name="oe" unicode="&#x153;" horiz-adv-x="1016" 
d="M297 -14c-163 0 -271 106 -271 264s108 264 271 264c80 0 164 -37 211 -92c46 55 131 92 211 92c163 0 271 -106 271 -264v-23l-10 -10h-410c11 -75 71 -125 149 -125c60 0 115 31 137 78h122c-33 -110 -137 -184 -259 -184c-79 0 -164 37 -211 92
c-46 -55 -130 -92 -211 -92zM297 92c91 0 151 63 151 158s-60 158 -151 158s-151 -63 -151 -158s60 -158 151 -158zM578 317h282c-22 58 -72 91 -141 91s-119 -33 -141 -91z" />
    <glyph glyph-name="p" unicode="p" horiz-adv-x="622" 
d="M332 514c158 0 264 -106 264 -264s-106 -264 -264 -264c-61 0 -128 28 -166 69v-241h-120v686h120v-55c38 41 105 69 166 69zM320 408c-92 0 -154 -63 -154 -158s62 -158 154 -158c94 0 156 63 156 158s-62 158 -156 158z" />
    <glyph glyph-name="Hello Porton" unicode="&#xfe;" horiz-adv-x="650" 
d="M58 -186v872h120v-241c38 41 105 69 166 69c158 0 264 -106 264 -264s-106 -264 -264 -264c-61 0 -128 28 -166 69v-241h-120zM332 92c94 0 156 63 156 158s-62 158 -156 158c-92 0 -154 -63 -154 -158s62 -158 154 -158z" />
    <glyph glyph-name="q" unicode="q" horiz-adv-x="622" 
d="M290 514c61 0 128 -28 166 -69v55h120v-686h-120v241c-38 -41 -105 -69 -166 -69c-158 0 -264 106 -264 264s106 264 264 264zM302 408c-94 0 -156 -63 -156 -158s62 -158 156 -158c92 0 154 63 154 158s-62 158 -154 158z" />
    <glyph glyph-name="r" unicode="r" horiz-adv-x="368" 
d="M46 0v500h120v-59c26 41 75 69 121 69c18 0 39 -4 53 -10v-92h-41c-80 0 -133 -45 -133 -112v-296h-120z" />
    <glyph glyph-name="s" unicode="s" horiz-adv-x="516" 
d="M258 -14c-135 0 -228 74 -232 184h113c4 -50 52 -84 119 -84s112 26 112 65c0 24 -30 41 -123 59c-145 33 -191 66 -191 149c0 93 81 155 202 155c96 0 180 -52 209 -130l-110 -27c-15 34 -55 57 -99 57c-49 0 -82 -20 -82 -49c0 -21 23 -34 94 -50
c167 -35 220 -73 220 -164c0 -99 -93 -165 -232 -165z" />
    <glyph glyph-name="scaron" unicode="&#x161;" horiz-adv-x="516" 
d="M306 547h-96l-121 156h133l36 -47l36 47h133zM270 315c167 -35 220 -73 220 -164c0 -99 -93 -165 -232 -165c-135 0 -228 74 -232 184h113c4 -50 52 -84 119 -84s112 26 112 65c0 24 -30 41 -123 59c-145 33 -191 66 -191 149c0 93 81 155 202 155c96 0 180 -52 209 -130
l-110 -27c-15 34 -55 57 -99 57c-49 0 -82 -20 -82 -49c0 -21 23 -34 94 -50z" />
    <glyph glyph-name="germandbls" unicode="&#xdf;" horiz-adv-x="582" 
d="M325 -14c-38 0 -86 12 -121 29v89h121c69 0 104 52 104 104c0 51 -34 101 -103 101h-122v118h76c64 0 95 38 95 76c0 39 -33 79 -95 79c-68 0 -106 -33 -106 -91v-491h-128v491c0 125 94 209 234 209c133 0 222 -78 222 -194c0 -38 -24 -87 -60 -122
c68 -37 114 -109 114 -179c0 -131 -92 -219 -231 -219z" />
    <glyph glyph-name="t" unicode="t" horiz-adv-x="387" 
d="M274 -14c-100 0 -166 57 -166 142v272h-80v100h80v186h120v-186h126v-100h-126v-272c0 -25 18 -42 44 -42h87v-86c-18 -8 -52 -14 -85 -14z" />
    <glyph glyph-name="u" unicode="u" horiz-adv-x="576" 
d="M530 500v-500h-120v37c-33 -31 -87 -51 -136 -51c-137 0 -228 81 -228 203v311h120v-297c0 -67 49 -111 122 -111s122 44 122 111v297h120z" />
    <glyph glyph-name="uacute" unicode="&#xfa;" horiz-adv-x="576" 
d="M353 576h-117l73 171h147zM530 500v-500h-120v37c-33 -31 -87 -51 -136 -51c-137 0 -228 81 -228 203v311h120v-297c0 -67 49 -111 122 -111s122 44 122 111v297h120z" />
    <glyph glyph-name="ucircumflex" unicode="&#xfb;" horiz-adv-x="576" 
d="M294 623l-36 -47h-133l121 156h96l121 -156h-133zM410 500h120v-500h-120v37c-33 -31 -87 -51 -136 -51c-137 0 -228 81 -228 203v311h120v-297c0 -67 49 -111 122 -111s122 44 122 111v297z" />
    <glyph glyph-name="udieresis" unicode="&#xfc;" horiz-adv-x="576" 
d="M134 576v110h120v-110h-120zM334 576v110h120v-110h-120zM530 500v-500h-120v37c-33 -31 -87 -51 -136 -51c-137 0 -228 81 -228 203v311h120v-297c0 -67 49 -111 122 -111s122 44 122 111v297h120z" />
    <glyph glyph-name="ugrave" unicode="&#xf9;" horiz-adv-x="576" 
d="M235 576l-103 171h147l73 -171h-117zM530 500v-500h-120v37c-33 -31 -87 -51 -136 -51c-137 0 -228 81 -228 203v311h120v-297c0 -67 49 -111 122 -111s122 44 122 111v297h120z" />
    <glyph glyph-name="v" unicode="v" horiz-adv-x="567" 
d="M222 0l-200 500h129l132 -374l133 374h129l-201 -500h-122z" />
    <glyph glyph-name="w" unicode="w" horiz-adv-x="804" 
d="M195 0l-173 500h126l105 -364l93 364h112l93 -364l105 364h126l-172 -500h-122l-86 323l-85 -323h-122z" />
    <glyph glyph-name="x" unicode="x" horiz-adv-x="571" 
d="M22 0l194 264l-175 236h146l99 -150l97 150h147l-175 -236l194 -264h-147l-116 177l-117 -177h-147z" />
    <glyph glyph-name="y" unicode="y" horiz-adv-x="548" 
d="M127 -186l86 218l-191 468h128l124 -314l123 314h129l-270 -686h-129z" />
    <glyph glyph-name="yacute" unicode="&#xfd;" horiz-adv-x="548" 
d="M332 553h-117l73 171h147zM127 -186l86 218l-191 468h128l124 -314l123 314h129l-270 -686h-129z" />
    <glyph glyph-name="ydieresis" unicode="&#xff;" horiz-adv-x="548" 
d="M113 553v110h120v-110h-120zM313 553v110h120v-110h-120zM127 -186l86 218l-191 468h128l124 -314l123 314h129l-270 -686h-129z" />
    <glyph glyph-name="z" unicode="z" horiz-adv-x="486" 
d="M28 0v80l266 314h-266v106h430v-80l-266 -314h266v-106h-430z" />
    <glyph glyph-name="zcaron" unicode="&#x17e;" horiz-adv-x="486" 
d="M287 547h-96l-121 156h133l36 -47l36 47h133zM458 500v-80l-266 -314h266v-106h-430v80l266 314h-266v106h430z" />
    <glyph glyph-name="a.alt" horiz-adv-x="594" 
d="M286 -14c-156 0 -260 106 -260 264c0 145 122 264 271 264c163 0 271 -106 271 -264v-250h-120v54c-39 -41 -103 -68 -162 -68zM298 92c83 0 150 71 150 158c0 95 -60 158 -150 158c-84 0 -152 -71 -152 -158c0 -95 61 -158 152 -158z" />
    <glyph glyph-name="b.alt" horiz-adv-x="614" 
d="M317 -14c-163 0 -271 106 -271 264v436h120v-240c37 41 102 68 162 68c156 0 260 -106 260 -264c0 -145 -122 -264 -271 -264zM316 92c84 0 152 71 152 158c0 95 -61 158 -152 158c-83 0 -150 -71 -150 -158c0 -95 60 -158 150 -158z" />
    <glyph glyph-name="d.alt" horiz-adv-x="614" 
d="M297 -14c-149 0 -271 119 -271 264c0 158 104 264 260 264c60 0 125 -27 162 -68v240h120v-436c0 -158 -108 -264 -271 -264zM298 92c90 0 150 63 150 158c0 87 -67 158 -150 158c-91 0 -152 -63 -152 -158c0 -87 68 -158 152 -158z" />
    <glyph glyph-name="g.alt" horiz-adv-x="596" 
d="M288 -200c-130 0 -233 80 -257 200h123c17 -56 71 -94 134 -94c85 0 142 63 142 157c-37 -38 -98 -63 -153 -63c-151 0 -251 103 -251 257c0 141 118 257 262 257c157 0 262 -103 262 -257v-194c0 -158 -105 -263 -262 -263zM289 106c78 0 141 68 141 151
c0 91 -56 151 -141 151c-79 0 -143 -68 -143 -151c0 -91 57 -151 143 -151z" />
    <glyph glyph-name="m.alt" horiz-adv-x="816" 
d="M46 0v316c0 119 89 198 223 198c56 0 116 -25 151 -62c35 37 95 62 151 62c119 0 199 -79 199 -197v-317h-120v317c0 55 -36 91 -91 91s-91 -36 -91 -91v-317h-120v317c0 55 -36 91 -91 91s-91 -36 -91 -91v-317h-120z" />
    <glyph glyph-name="n.alt" horiz-adv-x="576" 
d="M46 0v297c0 130 97 217 242 217s242 -87 242 -217v-297h-120v297c0 67 -49 111 -122 111s-122 -44 -122 -111v-297h-120z" />
    <glyph glyph-name="p.alt" horiz-adv-x="614" 
d="M317 514c149 0 271 -119 271 -264c0 -158 -104 -264 -260 -264c-60 0 -125 27 -162 68v-240h-120v436c0 158 108 264 271 264zM316 408c-90 0 -150 -63 -150 -158c0 -87 67 -158 150 -158c91 0 152 63 152 158c0 87 -68 158 -152 158z" />
    <glyph glyph-name="q.alt" horiz-adv-x="614" 
d="M297 514c163 0 271 -106 271 -264v-436h-120v240c-37 -41 -102 -68 -162 -68c-156 0 -260 106 -260 264c0 145 122 264 271 264zM298 408c-84 0 -152 -71 -152 -158c0 -95 61 -158 152 -158c83 0 150 71 150 158c0 95 -60 158 -150 158z" />
    <glyph glyph-name="u.alt" horiz-adv-x="576" 
d="M46 500h120v-297c0 -67 49 -111 122 -111s122 44 122 111v297h120v-297c0 -130 -97 -217 -242 -217s-242 87 -242 217v297z" />
    <glyph glyph-name="y.alt" horiz-adv-x="576" 
d="M288 -200c-139 0 -239 80 -249 200h120c7 -56 59 -94 129 -94c73 0 122 42 122 104v51c-26 -37 -79 -61 -134 -61c-138 0 -230 87 -230 217v283h120v-283c0 -67 49 -111 122 -111s122 44 122 111v283h120v-490c0 -126 -97 -210 -242 -210z" />
    <glyph glyph-name="ordfeminine" unicode="&#xaa;" horiz-adv-x="614" 
d="M286 -14c-156 0 -260 106 -260 264s104 264 260 264c59 0 124 -27 162 -68v54h120v-500h-120v54c-38 -41 -103 -68 -162 -68zM298 92c90 0 150 63 150 158s-60 158 -150 158c-91 0 -152 -63 -152 -158s61 -158 152 -158z" />
    <glyph glyph-name="ordmasculine" unicode="&#xba;" horiz-adv-x="594" 
d="M297 -14c-163 0 -271 106 -271 264s108 264 271 264s271 -106 271 -264s-108 -264 -271 -264zM297 92c91 0 151 63 151 158s-60 158 -151 158s-151 -63 -151 -158s60 -158 151 -158z" />
    <glyph glyph-name="uni0394" unicode="&#x394;" horiz-adv-x="684" 
d="M22 0l282 686h76l282 -686h-640zM192 108h298l-148 378z" />
    <glyph glyph-name="uni03A9" unicode="&#x3a9;" horiz-adv-x="620" 
d="M66 0v108h106v68c-88 48 -146 146 -146 245c0 153 129 279 284 279c156 0 284 -126 284 -279c0 -100 -58 -198 -145 -245v-68h105v-108h-223v250c87 12 145 80 145 171c0 93 -74 171 -166 171c-90 0 -166 -78 -166 -171c0 -90 58 -158 146 -171v-250h-224z" />
    <glyph glyph-name="uni03BC" unicode="&#x3bc;" horiz-adv-x="576" 
d="M46 -186v686h120v-297c0 -67 49 -111 122 -111s122 44 122 111v297h120v-500h-120v37c-32 -31 -81 -51 -122 -51s-89 20 -122 51v-223h-120z" />
    <glyph glyph-name="pi" unicode="&#x3c0;" horiz-adv-x="595" 
d="M529 -14c-108 0 -168 57 -168 157v249h-135v-392h-118v392h-80v108h539v-108h-88v-249c0 -29 18 -49 45 -49h43v-100c-9 -5 -24 -8 -38 -8z" />
    <glyph glyph-name="zero" unicode="0" 
d="M306 -14c-172 0 -269 129 -269 357s97 357 269 357c173 0 270 -129 270 -357s-97 -357 -270 -357zM306 92c102 0 150 100 150 251c0 171 -60 251 -150 251c-101 0 -149 -100 -149 -251c0 -171 60 -251 149 -251z" />
    <glyph glyph-name="one" unicode="1" horiz-adv-x="410" 
d="M204 0v528c-30 -21 -93 -37 -158 -39v94c91 3 143 36 163 103h115v-686h-120z" />
    <glyph glyph-name="two" unicode="2" 
d="M46 0v101l331 232c42 29 70 86 70 142c0 71 -56 119 -141 119s-141 -64 -141 -161h-113c0 160 102 267 254 267c157 0 261 -90 261 -225c0 -90 -48 -182 -120 -230l-200 -139h319v-106h-520z" />
    <glyph glyph-name="three" unicode="3" 
d="M299 -14c-158 0 -263 87 -263 217h115c0 -67 59 -111 148 -111c96 0 160 43 160 107s-64 107 -160 107h-64v106h64c83 0 139 36 139 90c0 55 -56 92 -139 92c-80 0 -133 -51 -133 -128h-113c0 140 98 234 246 234c155 0 258 -73 258 -183c0 -57 -41 -119 -102 -154
c73 -31 121 -102 121 -177c0 -120 -111 -200 -277 -200z" />
    <glyph glyph-name="four" unicode="4" 
d="M359 0v175h-323v83l296 428h147v-405h97v-106h-97v-175h-120zM181 281h178v275z" />
    <glyph glyph-name="five" unicode="5" 
d="M306 -14c-162 0 -270 90 -270 250h110c4 -86 66 -144 157 -144c77 0 154 48 154 147c0 91 -67 151 -168 151c-57 0 -110 -30 -134 -76l-109 14l44 358h448v-106h-350l-17 -134c40 30 99 50 147 50c155 0 258 -102 258 -256c0 -152 -108 -254 -270 -254z" />
    <glyph glyph-name="six" unicode="6" 
d="M306 -14c-162 0 -270 143 -270 357s108 357 271 357c129 0 220 -67 252 -185h-115c-18 51 -67 79 -137 79c-83 0 -142 -73 -148 -183c33 54 101 90 171 90c148 -1 246 -104 246 -257c0 -155 -108 -258 -270 -258zM313 396c-84 0 -140 -61 -140 -153
c0 -91 56 -152 139 -152c86 0 144 61 144 153c0 91 -57 152 -143 152z" />
    <glyph glyph-name="seven" unicode="7" 
d="M201 0c0 175 69 360 217 580h-372v106h520v-91c-167 -230 -245 -421 -245 -595h-120z" />
    <glyph glyph-name="eight" unicode="8" 
d="M306 -14c-159 0 -265 82 -265 206c0 69 50 140 124 176c-58 32 -96 92 -96 151c0 109 95 181 237 181s237 -72 237 -181c0 -59 -38 -119 -96 -151c74 -36 124 -107 124 -176c0 -124 -106 -206 -265 -206zM306 421c70 0 117 35 117 87s-47 86 -117 86s-117 -34 -117 -86
s47 -87 117 -87zM306 92c87 0 145 44 145 111s-58 112 -145 112s-145 -45 -145 -112s58 -111 145 -111z" />
    <glyph glyph-name="nine" unicode="9" 
d="M294 700c162 0 270 -143 270 -357s-108 -357 -271 -357c-129 0 -220 67 -252 185h115c18 -51 67 -79 137 -79c83 0 142 73 148 183c-33 -54 -101 -90 -171 -90c-148 1 -246 104 -246 257c0 155 108 258 270 258zM287 290c84 0 140 61 140 153c0 91 -56 152 -139 152
c-86 0 -144 -61 -144 -153c0 -91 57 -152 143 -152z" />
    <glyph glyph-name="fraction" unicode="&#x2044;" horiz-adv-x="574" 
d="M22 -10l420 706h110l-420 -706h-110z" />
    <glyph glyph-name="onehalf" unicode="&#xbd;" horiz-adv-x="818" 
d="M124 -10l420 706h110l-420 -706h-110zM119 267v296c-20 -11 -56 -18 -91 -18v77c67 5 87 17 99 64h86v-419h-94zM473 0v83c85 55 159 107 185 130c22 20 37 48 37 69c0 34 -23 56 -57 56c-52 0 -77 -27 -77 -85h-91c0 111 60 174 168 174c91 0 152 -58 152 -145
c0 -94 -70 -139 -152 -193h152v-89h-317z" />
    <glyph glyph-name="onequarter" unicode="&#xbc;" horiz-adv-x="769" 
d="M116 -10l420 706h110l-420 -706h-110zM119 267v296c-20 -11 -56 -18 -91 -18v77c67 5 87 17 99 64h86v-419h-94zM583 0v110h-170v70l169 236h94v-218h65v-88h-65v-110h-93zM516 198h67v93z" />
    <glyph glyph-name="threequarters" unicode="&#xbe;" horiz-adv-x="877" 
d="M191 267c-93 0 -158 57 -163 143h86c3 -32 34 -54 77 -54c48 0 72 25 72 50c0 23 -22 46 -67 46h-59v75h59c38 0 57 20 57 40s-20 41 -61 41c-40 0 -63 -20 -71 -64h-83c7 92 62 153 154 153s154 -48 154 -120c0 -31 -22 -66 -54 -87c39 -19 65 -54 65 -88
c0 -81 -66 -135 -166 -135zM217 -10l420 706h110l-420 -706h-110zM691 0v110h-170v70l169 236h94v-218h65v-88h-65v-110h-93zM624 198h67v93z" />
    <glyph glyph-name="zero.numr" horiz-adv-x="401" 
d="M201 266c-105 0 -175 87 -175 217c0 131 70 217 175 217c104 0 174 -86 174 -217c0 -130 -70 -217 -174 -217zM201 356c50 0 79 46 79 127c0 82 -29 128 -79 128s-79 -46 -79 -128c0 -81 29 -127 79 -127z" />
    <glyph glyph-name="one.numr" horiz-adv-x="259" 
d="M119 267v296c-20 -11 -56 -18 -91 -18v77c67 5 87 17 99 64h86v-419h-94z" />
    <glyph glyph-name="two.numr" horiz-adv-x="372" 
d="M29 271v83c85 55 159 107 185 130c22 20 37 48 37 69c0 34 -23 56 -57 56c-52 0 -77 -27 -77 -85h-91c0 111 60 174 168 174c91 0 152 -58 152 -145c0 -94 -70 -139 -152 -193h152v-89h-317z" />
    <glyph glyph-name="three.numr" horiz-adv-x="381" 
d="M189 267c-93 0 -158 57 -163 143h86c3 -32 34 -54 77 -54c48 0 72 25 72 50c0 23 -22 46 -67 46h-59v75h59c38 0 57 20 57 40s-20 41 -61 41c-40 0 -63 -20 -71 -64h-83c7 92 62 153 154 153s154 -48 154 -120c0 -31 -22 -66 -54 -87c39 -19 65 -54 65 -88
c0 -81 -66 -135 -166 -135z" />
    <glyph glyph-name="four.numr" horiz-adv-x="384" 
d="M198 270v110h-170v70l169 236h94v-218h65v-88h-65v-110h-93zM131 468h67v93z" />
    <glyph glyph-name="uni00B9" unicode="&#xb9;" horiz-adv-x="410" 
d="M204 0v528c-30 -21 -93 -37 -158 -39v94c91 3 143 36 163 103h115v-686h-120z" />
    <glyph glyph-name="uni00B2" unicode="&#xb2;" 
d="M46 0v101l331 232c42 29 70 86 70 142c0 71 -56 119 -141 119s-141 -64 -141 -161h-113c0 160 102 267 254 267c157 0 261 -90 261 -225c0 -90 -48 -182 -120 -230l-200 -139h319v-106h-520z" />
    <glyph glyph-name="uni00B3" unicode="&#xb3;" 
d="M299 -14c-158 0 -263 87 -263 217h115c0 -67 59 -111 148 -111c96 0 160 43 160 107s-64 107 -160 107h-64v106h64c83 0 139 36 139 90c0 55 -56 92 -139 92c-80 0 -133 -51 -133 -128h-113c0 140 98 234 246 234c155 0 258 -73 258 -183c0 -57 -41 -119 -102 -154
c73 -31 121 -102 121 -177c0 -120 -111 -200 -277 -200z" />
    <glyph glyph-name="asterisk" unicode="*" horiz-adv-x="518" 
d="M176 247l-97 70l94 118l-145 40l37 114l141 -53l-7 150h120l-7 -150l141 53l37 -114l-145 -40l94 -118l-97 -70l-83 126z" />
    <glyph glyph-name="backslash" unicode="\" horiz-adv-x="448" 
d="M426 -10h-100l-304 706h100z" />
    <glyph glyph-name="periodcentered" unicode="&#xb7;" horiz-adv-x="240" 
d="M46 176v148h148v-148h-148z" />
    <glyph glyph-name="bullet" unicode="&#x2022;" horiz-adv-x="315" 
d="M158 141c-63 0 -112 49 -112 112c0 62 50 111 112 111s111 -49 111 -111s-49 -112 -111 -112z" />
    <glyph glyph-name="colon" unicode=":" horiz-adv-x="240" 
d="M46 352v148h148v-148h-148zM46 0v148h148v-148h-148z" />
    <glyph glyph-name="comma" unicode="," horiz-adv-x="240" 
d="M46 -149v97c31 0 52 21 52 52h-52v148h148v-148c0 -89 -59 -149 -148 -149z" />
    <glyph glyph-name="ellipsis" unicode="&#x2026;" horiz-adv-x="818" 
d="M46 0v148h148v-148h-148zM338 0v148h148v-148h-148zM624 0v148h148v-148h-148z" />
    <glyph glyph-name="exclam" unicode="!" horiz-adv-x="240" 
d="M67 236l-21 450h148l-21 -450h-106zM46 0v148h148v-148h-148z" />
    <glyph glyph-name="exclamdown" unicode="&#xa1;" horiz-adv-x="240" 
d="M46 500h148v-148h-148v148zM67 264h106l21 -450h-148z" />
    <glyph glyph-name="numbersign" unicode="#" horiz-adv-x="756" 
d="M110 0l44 186h-126v106h151l28 116h-125v106h150l41 172h123l-41 -172h127l41 172h123l-41 -172h123v-106h-148l-27 -116h121v-106h-146l-45 -186h-123l44 186h-126l-45 -186h-123zM303 292h126l28 116h-127z" />
    <glyph glyph-name="period" unicode="." horiz-adv-x="240" 
d="M46 0v148h148v-148h-148z" />
    <glyph glyph-name="question" unicode="?" horiz-adv-x="534" 
d="M216 236c0 148 172 191 172 264c0 56 -42 94 -106 94c-87 0 -139 -48 -143 -132h-113c2 143 104 238 256 238c136 0 226 -80 226 -200c0 -146 -179 -179 -179 -264h-113zM199 0v148h148v-148h-148z" />
    <glyph glyph-name="questiondown" unicode="&#xbf;" horiz-adv-x="574" 
d="M355 500v-148h-148v148h148zM338 264c0 -148 -172 -191 -172 -264c0 -56 42 -94 106 -94c87 0 139 48 143 132h113c-2 -143 -104 -238 -256 -238c-136 0 -226 80 -226 200c0 146 179 179 179 264h113z" />
    <glyph glyph-name="quotedbl" unicode="&#x22;" horiz-adv-x="364" 
d="M39 428l-17 258h130l-17 -258h-96zM229 428l-17 258h130l-17 -258h-96z" />
    <glyph glyph-name="quotesingle" unicode="'" horiz-adv-x="174" 
d="M39 428l-17 258h130l-17 -258h-96z" />
    <glyph glyph-name="semicolon" unicode=";" horiz-adv-x="251" 
d="M57 352v148h148v-148h-148zM46 -149v97c31 0 52 21 52 52h-52v148h148v-148c0 -89 -59 -149 -148 -149z" />
    <glyph glyph-name="slash" unicode="/" horiz-adv-x="448" 
d="M22 -10l304 706h100l-304 -706h-100z" />
    <glyph glyph-name="underscore" unicode="_" horiz-adv-x="608" 
d="M28 -108v108h552v-108h-552z" />
    <glyph glyph-name="braceleft" unicode="{" horiz-adv-x="368" 
d="M346 -95c-130 0 -216 70 -216 174v109c0 60 -41 100 -102 100v106c61 0 102 40 102 100v109c0 104 86 174 216 174v-106c-58 0 -96 -27 -96 -68v-109c0 -63 -34 -124 -85 -153c51 -29 85 -90 85 -153v-109c0 -41 38 -68 96 -68v-106z" />
    <glyph glyph-name="braceright" unicode="}" horiz-adv-x="368" 
d="M22 -95v106c58 0 96 27 96 68v109c0 63 34 124 85 153c-51 29 -85 90 -85 153v109c0 41 -38 68 -96 68v106c130 0 216 -70 216 -174v-109c0 -60 41 -100 102 -100v-106c-61 0 -102 -40 -102 -100v-109c0 -104 -86 -174 -216 -174z" />
    <glyph glyph-name="bracketleft" unicode="[" horiz-adv-x="330" 
d="M46 -95v872h238v-106h-118v-660h118v-106h-238z" />
    <glyph glyph-name="bracketright" unicode="]" horiz-adv-x="306" 
d="M260 -95h-238v106h118v660h-118v106h238v-872z" />
    <glyph glyph-name="parenleft" unicode="(" horiz-adv-x="302" 
d="M189 -142c-130 223 -163 319 -163 484s33 262 163 485l91 -55c-107 -181 -134 -267 -134 -430c0 -162 27 -248 134 -429z" />
    <glyph glyph-name="parenright" unicode=")" horiz-adv-x="302" 
d="M113 -142l-91 55c107 181 134 267 134 429c0 163 -27 249 -134 430l91 55c130 -223 163 -320 163 -485s-33 -261 -163 -484z" />
    <glyph glyph-name="emdash" unicode="&#x2014;" horiz-adv-x="865" 
d="M46 186v108h773v-108h-773z" />
    <glyph glyph-name="endash" unicode="&#x2013;" horiz-adv-x="620" 
d="M46 186v108h528v-108h-528z" />
    <glyph glyph-name="hyphen" unicode="-" horiz-adv-x="476" 
d="M46 186v108h384v-108h-384z" />
    <glyph glyph-name="uni00AD" unicode="&#xad;" horiz-adv-x="476" 
d="M46 186v108h384v-108h-384z" />
    <glyph glyph-name="guillemotleft" unicode="&#xab;" horiz-adv-x="503" 
d="M187 53l-141 196l141 196h116l-143 -196l142 -196h-115zM341 53l-141 196l141 196h116l-143 -196l142 -196h-115z" />
    <glyph glyph-name="guillemotright" unicode="&#xbb;" horiz-adv-x="503" 
d="M162 53h-115l142 196l-143 196h116l141 -196zM316 53h-115l142 196l-143 196h116l141 -196z" />
    <glyph glyph-name="guilsinglleft" unicode="&#x2039;" horiz-adv-x="349" 
d="M187 53l-141 196l141 196h116l-143 -196l142 -196h-115z" />
    <glyph glyph-name="guilsinglright" unicode="&#x203a;" horiz-adv-x="349" 
d="M162 53h-115l142 196l-143 196h116l141 -196z" />
    <glyph glyph-name="quotedblbase" unicode="&#x201e;" horiz-adv-x="240" 
d="M46 148h148v-148c0 -89 -59 -149 -148 -149v97c31 0 52 21 52 52h-52v148z" />
    <glyph glyph-name="quotedblleft" unicode="&#x201c;" horiz-adv-x="420" 
d="M194 686v-97c-31 0 -52 -21 -52 -52h52v-148h-148v148c0 89 59 149 148 149zM374 686v-97c-31 0 -52 -21 -52 -52h52v-148h-148v148c0 89 59 149 148 149z" />
    <glyph glyph-name="quotedblright" unicode="&#x201d;" horiz-adv-x="420" 
d="M46 389v97c31 0 52 21 52 52h-52v148h148v-148c0 -89 -59 -149 -148 -149zM226 389v97c31 0 52 21 52 52h-52v148h148v-148c0 -89 -59 -149 -148 -149z" />
    <glyph glyph-name="quoteleft" unicode="&#x2018;" horiz-adv-x="240" 
d="M194 686v-97c-31 0 -52 -21 -52 -52h52v-148h-148v148c0 89 59 149 148 149z" />
    <glyph glyph-name="quoteright" unicode="&#x2019;" horiz-adv-x="240" 
d="M46 389v97c31 0 52 21 52 52h-52v148h148v-148c0 -89 -59 -149 -148 -149z" />
    <glyph glyph-name="quotesinglbase" unicode="&#x201a;" horiz-adv-x="240" 
d="M46 -149v97c31 0 52 21 52 52h-52v148h148v-148c0 -89 -59 -149 -148 -149z" />
    <glyph glyph-name="space" unicode=" " horiz-adv-x="250" 
 />
    <glyph glyph-name="cent" unicode="&#xa2;" horiz-adv-x="578" 
d="M144 -115l35 124c-92 40 -153 136 -153 241c0 158 108 264 271 264c13 0 23 0 26 -1l27 96h93l-33 -117c70 -30 127 -106 141 -190h-115c-10 37 -32 70 -56 84l-83 -294c69 0 125 44 140 111h115c-21 -130 -123 -217 -255 -217c-15 0 -27 0 -30 1l-30 -102h-93zM210 117
l83 291c-88 -2 -147 -65 -147 -158c0 -55 26 -108 64 -133z" />
    <glyph glyph-name="currency" unicode="&#xa4;" horiz-adv-x="571" 
d="M103 72l-57 56l67 67c-23 32 -38 79 -38 116c0 38 15 84 38 115l-67 68l57 56l68 -68c30 19 76 32 114 32s84 -13 115 -32l68 68l57 -56l-68 -68c23 -31 38 -77 38 -115c0 -37 -15 -84 -38 -116l68 -67l-57 -56l-68 68c-30 -19 -76 -32 -115 -32c-40 0 -85 13 -114 32z
M285 214c54 0 90 39 90 97s-36 97 -90 97s-90 -39 -90 -97s36 -97 90 -97z" />
    <glyph glyph-name="dollar" unicode="$" horiz-adv-x="604" 
d="M258 -109v97c-139 13 -232 99 -232 215h113c0 -55 48 -98 119 -108v200c-134 24 -224 105 -224 203c0 110 90 190 224 200v97h80v-97c129 -10 217 -89 219 -198h-113c-2 48 -44 85 -106 92v-188c144 -26 240 -110 240 -210c0 -112 -96 -194 -240 -206v-97h-80zM258 416
v175c-62 -7 -104 -44 -104 -93c0 -36 42 -69 104 -82zM338 95c72 11 120 51 120 99c0 38 -48 73 -120 88v-187z" />
    <glyph glyph-name="Euro" unicode="&#x20ac;" horiz-adv-x="711" 
d="M408 -14c-132 0 -244 89 -279 223h-101l14 80h74c-1 16 -2 35 -2 54s1 38 2 54h-88l14 80h88c34 134 145 223 278 223c131 0 242 -89 277 -223h-120c-22 70 -85 117 -157 117s-135 -47 -157 -117h222l-14 -80h-223c-2 -15 -3 -34 -3 -53s1 -38 3 -55h204l-14 -80h-176
c22 -70 85 -117 158 -117s136 47 157 117h120c-35 -134 -146 -223 -277 -223z" />
    <glyph glyph-name="florin" unicode="&#x192;" horiz-adv-x="518" 
d="M101 -201c-27 0 -57 8 -73 21l13 90h64c32 0 49 16 54 51l56 393h-80l14 108h81l11 82c14 94 85 156 177 156c26 0 55 -8 72 -20l-11 -91h-65c-33 0 -51 -16 -55 -51l-11 -76h116l-14 -108h-117l-56 -399c-13 -94 -83 -156 -176 -156z" />
    <glyph glyph-name="sterling" unicode="&#xa3;" horiz-adv-x="597" 
d="M93 -23l-65 78c70 58 117 126 117 169c0 23 -7 45 -17 68h-90v80h51c-16 35 -26 83 -26 121c0 124 86 207 215 207c124 0 206 -83 206 -207h-120c0 61 -34 101 -86 101c-57 0 -95 -40 -95 -101c0 -26 16 -74 39 -121h163v-80h-130c6 -21 10 -44 10 -68
c0 -29 -13 -68 -32 -97c64 -6 116 -35 158 -35c38 0 86 14 119 36l59 -88c-49 -32 -120 -54 -178 -54c-75 0 -137 40 -187 40c-34 0 -79 -20 -111 -49z" />
    <glyph glyph-name="yen" unicode="&#xa5;" horiz-adv-x="628" 
d="M606 686l-101 -204h67v-90h-112l-48 -98h156v-90h-187v-204h-134v204h-195v90h164l-48 98h-112v90h67l-101 204h148l144 -300l144 300h148z" />
    <glyph glyph-name="approxequal" unicode="&#x2248;" horiz-adv-x="701" 
d="M46 271c0 118 75 197 188 197c90 0 180 -89 240 -89c37 0 70 35 82 87h99c-1 -117 -73 -195 -181 -195c-86 0 -174 89 -240 89c-43 0 -79 -36 -89 -89h-99zM46 66c0 118 75 197 188 197c90 0 180 -89 240 -89c37 0 70 35 82 87h99c-1 -117 -73 -195 -181 -195
c-86 0 -174 89 -240 89c-43 0 -79 -36 -89 -89h-99z" />
    <glyph glyph-name="asciitilde" unicode="~" horiz-adv-x="701" 
d="M46 152c0 118 75 197 188 197c90 0 180 -89 240 -89c37 0 70 35 82 87h99c-1 -117 -73 -195 -181 -195c-86 0 -174 89 -240 89c-43 0 -79 -36 -89 -89h-99z" />
    <glyph glyph-name="divide" unicode="&#xf7;" 
d="M232 352v148h148v-148h-148zM46 196v108h520v-108h-520zM232 0v148h148v-148h-148z" />
    <glyph glyph-name="emptyset" unicode="&#x2205;" horiz-adv-x="591" 
d="M565 458l-55 -55c31 -43 49 -96 49 -153c0 -146 -118 -264 -264 -264c-57 0 -110 18 -153 49l-54 -54l-62 62l54 54c-31 43 -49 95 -49 153c0 146 119 264 264 264c57 0 110 -18 153 -49l55 55zM137 250c0 -28 7 -54 19 -77l216 216c-23 12 -49 19 -77 19
c-87 0 -158 -71 -158 -158zM453 250c0 28 -7 54 -19 77l-216 -216c23 -12 50 -19 77 -19c88 0 158 70 158 158z" />
    <glyph glyph-name="equal" unicode="=" 
d="M46 308v108h520v-108h-520zM46 84v108h520v-108h-520z" />
    <glyph glyph-name="greater" unicode="&#x3e;" 
d="M46 3v125l347 131l-347 129v125l520 -203v-103z" />
    <glyph glyph-name="greaterequal" unicode="&#x2265;" 
d="M46 137v120l293 70l-293 69v121l520 -148v-84zM46 0v108h520v-108h-520z" />
    <glyph glyph-name="infinity" unicode="&#x221e;" horiz-adv-x="781" 
d="M228 55c-110 0 -182 99 -182 195c0 99 74 195 182 195c65 0 125 -20 163 -71c30 43 77 71 162 71c110 0 182 -98 182 -195c0 -98 -73 -195 -182 -195c-65 0 -125 21 -163 72c-30 -43 -77 -72 -162 -72zM241 159c39 0 82 30 101 91c-18 62 -62 92 -101 92
c-40 0 -75 -31 -75 -92c0 -60 35 -91 75 -91zM540 159c40 0 75 31 75 91s-35 92 -75 92c-39 0 -83 -30 -101 -92c19 -61 62 -91 101 -91z" />
    <glyph glyph-name="integral" unicode="&#x222b;" horiz-adv-x="506" 
d="M166 -200c-86 0 -144 56 -144 139h114c1 -19 13 -31 30 -31s28 14 28 34v616c0 85 59 142 147 142c86 0 143 -57 143 -142h-114c0 20 -12 34 -29 34s-29 -14 -29 -34v-616c0 -85 -58 -142 -146 -142z" />
    <glyph glyph-name="less" unicode="&#x3c;" 
d="M566 3l-520 204v103l520 203v-125l-347 -129l347 -131v-125z" />
    <glyph glyph-name="lessequal" unicode="&#x2264;" horiz-adv-x="642" 
d="M566 137l-520 148v84l520 148v-121l-293 -69l293 -70v-120zM566 0h-520v108h520v-108z" />
    <glyph glyph-name="logicalnot" unicode="&#xac;" 
d="M448 84v268h-402v108h520v-376h-118z" />
    <glyph glyph-name="minus" unicode="&#x2212;" 
d="M46 196v108h520v-108h-520z" />
    <glyph glyph-name="multiply" unicode="&#xd7;" horiz-adv-x="599" 
d="M106 -27l-84 84l194 193l-194 194l84 84l193 -194l194 194l84 -84l-194 -194l194 -193l-84 -84l-194 194z" />
    <glyph glyph-name="notequal" unicode="&#x2260;" 
d="M129 0l38 86h-121v105h168l53 118h-221v106h268l38 85h131l-37 -85h120v-106h-168l-52 -118h220v-105h-268l-38 -86h-131z" />
    <glyph glyph-name="partialdiff" unicode="&#x2202;" horiz-adv-x="601" 
d="M290 -14c-158 0 -264 107 -264 268s103 268 257 268c79 0 149 -34 193 -94c-39 108 -110 169 -198 169c-34 0 -66 -12 -95 -36l-58 86c45 35 99 53 153 53c197 0 297 -184 297 -366c0 -175 -94 -348 -285 -348zM290 89c89 0 149 66 149 165c0 98 -60 164 -149 164
c-91 0 -151 -66 -151 -164c0 -99 60 -165 151 -165z" />
    <glyph glyph-name="percent" unicode="%" horiz-adv-x="858" 
d="M164 -10l420 706h110l-420 -706h-110zM225 328c-99 0 -179 80 -179 179c0 80 80 179 179 179s179 -80 179 -179s-80 -179 -179 -179zM225 436c40 0 71 31 71 71s-31 71 -71 71s-71 -31 -71 -71s31 -71 71 -71zM633 -14c-99 0 -179 80 -179 179c0 80 80 179 179 179
s179 -80 179 -179s-80 -179 -179 -179zM633 94c40 0 71 31 71 71s-31 71 -71 71s-71 -31 -71 -71s31 -71 71 -71z" />
    <glyph glyph-name="perthousand" unicode="&#x2030;" horiz-adv-x="1246" 
d="M201 266c-105 0 -175 87 -175 217c0 131 70 217 175 217c104 0 174 -86 174 -217c0 -130 -70 -217 -174 -217zM180 -10l420 706h110l-420 -706h-110zM201 356c50 0 79 46 79 127c0 82 -29 128 -79 128s-79 -46 -79 -128c0 -81 29 -127 79 -127zM682 -11
c-105 0 -175 87 -175 217c0 131 70 217 175 217c104 0 174 -86 174 -217c0 -130 -70 -217 -174 -217zM1046 -11c-105 0 -175 87 -175 217c0 131 70 217 175 217c104 0 174 -86 174 -217c0 -130 -70 -217 -174 -217zM682 79c50 0 79 46 79 127c0 82 -29 128 -79 128
s-79 -46 -79 -128c0 -81 29 -127 79 -127zM1046 79c50 0 79 46 79 127c0 82 -29 128 -79 128s-79 -46 -79 -128c0 -81 29 -127 79 -127z" />
    <glyph glyph-name="plus" unicode="+" 
d="M246 0v197h-200v106h200v197h120v-197h200v-106h-200v-197h-120z" />
    <glyph glyph-name="plusminus" unicode="&#xb1;" 
d="M245 148v123h-199v106h199v123h120v-123h201v-106h-201v-123h-120zM46 0v106h520v-106h-520z" />
    <glyph glyph-name="product" unicode="&#x220f;" 
d="M46 -95v872h520v-872h-118v764h-284v-764h-118z" />
    <glyph glyph-name="radical" unicode="&#x221a;" 
d="M284 -95l-133 260l-52 -28l-53 106l156 81l99 -192l144 645h121l-195 -872h-87z" />
    <glyph glyph-name="summation" unicode="&#x2211;" 
d="M46 -95v81l250 355l-250 355v81h520v-108h-360l219 -309v-38l-219 -309h360v-108h-520z" />
    <glyph glyph-name="lozenge" unicode="&#x25ca;" 
d="M271 -83l-239 424l239 424h70l238 -424l-238 -424h-70zM306 92l136 249l-136 249l-137 -249z" />
    <glyph glyph-name="bar" unicode="|" horiz-adv-x="212" 
d="M46 -95v872h120v-872h-120z" />
    <glyph glyph-name="brokenbar" unicode="&#xa6;" horiz-adv-x="212" 
d="M46 392v385h120v-385h-120zM46 -95v375h120v-375h-120z" />
    <glyph glyph-name="at" unicode="@" horiz-adv-x="933" 
d="M477 -78c-259 0 -431 153 -431 383c0 251 182 418 455 418c232 0 386 -130 386 -325c0 -173 -96 -288 -239 -288c-50 0 -87 27 -111 67c-38 -51 -84 -67 -127 -67c-86 0 -143 70 -143 176c0 149 113 250 209 250c48 0 92 -27 109 -68l9 32h114
c-47 -151 -78 -259 -78 -268c0 -10 7 -16 18 -16c71 0 119 73 119 182c0 131 -106 219 -266 219c-201 0 -335 -125 -335 -312c0 -166 124 -277 311 -277c72 0 159 24 218 60l71 -88c-74 -47 -189 -78 -289 -78zM432 209c63 0 105 66 105 166c0 46 -19 76 -48 76
c-62 0 -104 -68 -104 -171c0 -43 19 -71 47 -71z" />
    <glyph glyph-name="ampersand" unicode="&#x26;" horiz-adv-x="699" 
d="M274 -14c-149 0 -248 80 -248 200c0 66 50 139 126 183l-13 13c-38 41 -63 100 -63 147c0 103 85 171 212 171c126 0 210 -70 210 -175c0 -59 -54 -128 -134 -172l-20 -10l135 -139c16 31 26 79 26 119h120c-1 -70 -27 -151 -64 -204l116 -119h-167l-37 38
c-51 -31 -131 -52 -199 -52zM267 423c10 4 28 13 46 23c39 21 65 53 65 79c0 41 -36 69 -90 69c-55 0 -92 -26 -92 -65c0 -20 12 -46 30 -64zM274 92c41 0 89 11 120 27l-163 169c-51 -28 -85 -69 -85 -102c0 -56 51 -94 128 -94z" />
    <glyph glyph-name="paragraph" unicode="&#xb6;" horiz-adv-x="560" 
d="M240 -94v436c-111 0 -185 71 -185 178c0 109 74 181 185 181h307v-66h-67v-729h-66v729h-108v-729h-66z" />
    <glyph glyph-name="copyright" unicode="&#xa9;" horiz-adv-x="908" 
d="M454 -60c-224 0 -408 175 -408 401s184 401 408 401s408 -175 408 -401s-184 -401 -408 -401zM454 46c145 0 288 117 288 295c0 176 -143 295 -288 295s-288 -118 -288 -295s143 -295 288 -295zM454 118c-131 0 -219 89 -219 223c0 133 88 222 219 222
c107 0 191 -70 211 -174h-114c-14 42 -53 70 -97 70c-61 0 -101 -47 -101 -118s40 -119 101 -119c44 0 83 28 97 70h114c-20 -104 -104 -174 -211 -174z" />
    <glyph glyph-name="registered" unicode="&#xae;" horiz-adv-x="908" 
d="M454 -60c-224 0 -408 175 -408 401s184 401 408 401s408 -175 408 -401s-184 -401 -408 -401zM454 46c145 0 288 118 288 295s-143 295 -288 295s-288 -117 -288 -295c0 -176 143 -295 288 -295zM295 148v388h184c81 0 135 -50 135 -124c0 -52 -29 -98 -72 -115l93 -149
h-124l-86 139h-17v-139h-113zM408 384h78c16 0 27 11 27 28c0 16 -11 27 -27 27h-78v-55z" />
    <glyph glyph-name="section" unicode="&#xa7;" horiz-adv-x="517" 
d="M257 -90c-107 0 -183 71 -190 179h119c5 -46 35 -76 76 -76c45 0 66 27 66 55c0 21 -11 41 -33 52l-119 57c-90 43 -150 110 -150 168c0 57 36 112 91 140c-30 21 -51 68 -51 115c0 104 78 173 194 173c107 0 183 -71 190 -178h-119c-5 45 -35 75 -76 75
c-45 0 -66 -27 -66 -54c0 -21 11 -41 33 -52l119 -57c90 -43 150 -110 150 -168c0 -57 -36 -113 -91 -141c30 -21 51 -67 51 -115c0 -104 -78 -173 -194 -173zM335 244c24 12 39 37 39 62c0 19 -22 44 -55 62l-137 71c-23 -12 -39 -36 -39 -61c0 -19 22 -44 55 -62z" />
    <glyph glyph-name="trademark" unicode="&#x2122;" horiz-adv-x="831" 
d="M152 326v272h-96v88h284v-88h-96v-272h-92zM394 326v360h97l93 -223l94 223h97v-360h-92v207l-85 -207h-26l-85 207v-207h-93z" />
    <glyph glyph-name="degree" unicode="&#xb0;" horiz-adv-x="462" 
d="M231 340c-103 0 -185 81 -185 180s82 180 185 180s185 -81 185 -180s-82 -180 -185 -180zM231 448c37 0 67 32 67 72s-30 72 -67 72s-67 -32 -67 -72s30 -72 67 -72z" />
    <glyph glyph-name="asciicircum" unicode="^" 
d="M36 261l220 425h98l222 -425h-118l-152 300l-151 -300h-119z" />
    <glyph glyph-name="dagger" unicode="&#x2020;" 
d="M247 -94v577h-201v108h201v186h118v-186h201v-108h-201v-577h-118z" />
    <glyph glyph-name="daggerdbl" unicode="&#x2021;" 
d="M247 -96v187h-201v108h201v284h-201v108h201v186h118v-186h201v-108h-201v-284h201v-108h-201v-187h-118z" />
    <glyph glyph-name="uni0308" unicode="&#x308;" horiz-adv-x="0" 
d="M-466 553v110h120v-110h-120zM-266 553v110h120v-110h-120z" />
    <glyph glyph-name="uni0307" unicode="&#x307;" horiz-adv-x="0" 
d="M-375 548v138h138v-138h-138z" />
    <glyph glyph-name="gravecomb" unicode="&#x300;" horiz-adv-x="0" 
d="M-365 553l-103 171h147l73 -171h-117z" />
    <glyph glyph-name="acutecomb" unicode="&#x301;" horiz-adv-x="0" 
d="M-247 553h-117l73 171h147z" />
    <glyph glyph-name="uni0302" unicode="&#x302;" horiz-adv-x="0" 
d="M-137 553h-133l-36 47l-36 -47h-133l121 156h96z" />
    <glyph glyph-name="uni030A" unicode="&#x30a;" horiz-adv-x="0" 
d="M-307 542c-59 0 -107 48 -107 107c0 60 47 107 107 107c61 0 108 -47 108 -107c0 -59 -48 -107 -108 -107zM-306 622c14 0 27 13 27 28c0 14 -13 27 -27 27c-15 0 -28 -13 -28 -27c0 -15 13 -28 28 -28z" />
    <glyph glyph-name="tildecomb" unicode="&#x303;" horiz-adv-x="0" 
d="M-493 548c-1 7 -1 13 -1 20c0 73 48 121 124 121c69 0 89 -43 133 -43c17 0 28 16 28 41h90c1 -7 1 -13 1 -20c0 -72 -46 -119 -119 -119c-70 0 -89 43 -133 43c-19 0 -31 -17 -31 -43h-92z" />
    <glyph glyph-name="uni0327" unicode="&#x327;" horiz-adv-x="0" 
d="M-324 -200c-70 0 -116 42 -116 105c0 48 58 105 144 143h91c-68 -42 -114 -89 -114 -118c0 -14 12 -24 30 -24h57v-83c-28 -14 -64 -23 -92 -23z" />
    <glyph glyph-name="uni0335" unicode="&#x335;" horiz-adv-x="0" 
d="M-565 186v108h384v-108h-384z" />
    <glyph glyph-name="uni0338" unicode="&#x338;" horiz-adv-x="0" 
d="M-582 -19l434 724h118l-434 -724h-118z" />
    <glyph glyph-name="acute" unicode="&#xb4;" 
d="M365 553h-117l73 171h147z" />
    <glyph glyph-name="breve" unicode="&#x2d8;" 
d="M306 544c-97 0 -172 79 -172 172h118c0 -29 23 -54 54 -54s54 25 54 54h118c0 -93 -76 -172 -172 -172z" />
    <glyph glyph-name="caron" unicode="&#x2c7;" 
d="M342 703h133l-121 -156h-96l-121 156h133l36 -47z" />
    <glyph glyph-name="cedilla" unicode="&#xb8;" 
d="M288 -200c-70 0 -116 42 -116 105c0 48 58 105 144 143h91c-68 -42 -114 -89 -114 -118c0 -14 12 -24 30 -24h57v-83c-28 -14 -64 -23 -92 -23z" />
    <glyph glyph-name="circumflex" unicode="&#x2c6;" 
d="M475 553h-133l-36 47l-36 -47h-133l121 156h96z" />
    <glyph glyph-name="dieresis" unicode="&#xa8;" 
d="M146 553v110h120v-110h-120zM346 553v110h120v-110h-120z" />
    <glyph glyph-name="dotaccent" unicode="&#x2d9;" 
d="M237 548v138h138v-138h-138z" />
    <glyph glyph-name="grave" unicode="`" 
d="M246 553l-103 171h147l73 -171h-117z" />
    <glyph glyph-name="hungarumlaut" unicode="&#x2dd;" 
d="M246 553h-117l73 171h147zM439 553h-117l73 171h147z" />
    <glyph glyph-name="macron" unicode="&#xaf;" 
d="M114 553v108h384v-108h-384z" />
    <glyph glyph-name="ogonek" unicode="&#x2db;" 
d="M288 -200c-70 0 -116 42 -116 105c0 48 58 105 144 143h91c-68 -42 -114 -89 -114 -118c0 -14 12 -24 30 -24h57v-83c-28 -14 -64 -23 -92 -23z" />
    <glyph glyph-name="ring" unicode="&#x2da;" 
d="M305 542c-59 0 -107 48 -107 107c0 60 47 107 107 107c61 0 108 -47 108 -107c0 -59 -48 -107 -108 -107zM306 622c14 0 27 13 27 28c0 14 -13 27 -27 27c-15 0 -28 -13 -28 -27c0 -15 13 -28 28 -28z" />
    <glyph glyph-name="tilde" unicode="&#x2dc;" 
d="M119 548c-1 7 -1 13 -1 20c0 73 48 121 124 121c69 0 89 -43 133 -43c17 0 28 16 28 41h90c1 -7 1 -13 1 -20c0 -72 -46 -119 -119 -119c-70 0 -89 43 -133 43c-19 0 -31 -17 -31 -43h-92z" />
    </font>
</defs>
</svg>
